<?xml version="1.0" encoding="utf-8"?>
<!-- Generator: Adobe Illustrator 17.0.0, SVG Export Plug-In . SVG Version: 6.00 Build 0)  -->
<!DOCTYPE svg PUBLIC "-//W3C//DTD SVG 1.1//EN" "http://www.w3.org/Graphics/SVG/1.1/DTD/svg11.dtd">
<svg version="1.1" id="Capa_1" xmlns="http://www.w3.org/2000/svg" xmlns:xlink="http://www.w3.org/1999/xlink" x="0px" y="0px"
	 width="112px" height="28px" viewBox="0 0 112 28" enable-background="new 0 0 112 28" xml:space="preserve">
<g id="XMLID_2_">
	<g>
		<rect x="17.5" y="10.5" fill="#D3CFEB" width="5" height="15"/>
		<rect x="10.5" y="4.5" fill="#D3CFEB" width="5" height="21"/>
		<rect x="3.5" y="7.5" fill="#D3CFEB" width="5" height="18"/>
	</g>
	<g>
		<rect x="3.5" y="7.5" fill="none" stroke="#000000" stroke-miterlimit="10" width="5" height="18"/>
		<rect x="10.5" y="4.5" fill="none" stroke="#000000" stroke-miterlimit="10" width="5" height="21"/>
		<rect x="17.5" y="10.5" fill="none" stroke="#000000" stroke-miterlimit="10" width="5" height="15"/>
	</g>
</g>
<g id="XMLID_1_">
	<g>
		<rect x="24.5" y="4.5" fill="#D3CFEB" width="5" height="21"/>
	</g>
	<g>
		<rect x="24.5" y="4.5" fill="none" stroke="#000000" stroke-miterlimit="10" width="5" height="21"/>
	</g>
</g>
<g>
	<rect x="36" y="6.938" fill="none" width="70.875" height="22.125"/>
	<path fill="#FFFFFF" d="M40.172,18.352v6.352h-1.969V7.898h4.617c1.797,0,3.189,0.438,4.178,1.313s1.482,2.109,1.482,3.703
		s-0.549,2.898-1.646,3.914s-2.58,1.523-4.447,1.523H40.172z M40.172,9.68v6.891h2.063c1.359,0,2.396-0.311,3.111-0.932
		s1.072-1.498,1.072-2.631c0-2.219-1.313-3.328-3.938-3.328H40.172z"/>
	<path fill="#FFFFFF" d="M55.512,24.984c-1.773,0-3.189-0.561-4.248-1.682s-1.588-2.607-1.588-4.459c0-2.016,0.551-3.59,1.652-4.723
		s2.59-1.699,4.465-1.699c1.789,0,3.186,0.551,4.189,1.652s1.506,2.629,1.506,4.582c0,1.914-0.541,3.447-1.623,4.6
		S57.332,24.984,55.512,24.984z M55.652,14.039c-1.234,0-2.211,0.42-2.93,1.26s-1.078,1.998-1.078,3.475
		c0,1.422,0.363,2.543,1.09,3.363s1.699,1.23,2.918,1.23c1.242,0,2.197-0.402,2.865-1.207s1.002-1.949,1.002-3.434
		c0-1.5-0.334-2.656-1.002-3.469S56.895,14.039,55.652,14.039z"/>
	<path fill="#FFFFFF" d="M66.48,24.703h-1.922V6.938h1.922V24.703z"/>
	<path fill="#FFFFFF" d="M72.293,24.703h-1.922V6.938h1.922V24.703z"/>
	<path fill="#FFFFFF" d="M75.457,24.27v-2.063c1.047,0.773,2.199,1.16,3.457,1.16c1.688,0,2.531-0.563,2.531-1.688
		c0-0.32-0.072-0.592-0.217-0.814s-0.34-0.42-0.586-0.592s-0.535-0.326-0.867-0.463s-0.689-0.279-1.072-0.428
		c-0.531-0.211-0.998-0.424-1.4-0.639s-0.738-0.457-1.008-0.727s-0.473-0.576-0.609-0.92s-0.205-0.746-0.205-1.207
		c0-0.563,0.129-1.061,0.387-1.494s0.602-0.797,1.031-1.09s0.92-0.514,1.471-0.662s1.119-0.223,1.705-0.223
		c1.039,0,1.969,0.18,2.789,0.539v1.945c-0.883-0.578-1.898-0.867-3.047-0.867c-0.359,0-0.684,0.041-0.973,0.123
		s-0.537,0.197-0.744,0.346s-0.367,0.326-0.48,0.533s-0.17,0.436-0.17,0.686c0,0.313,0.057,0.574,0.17,0.785
		s0.279,0.398,0.498,0.563s0.484,0.313,0.797,0.445s0.668,0.277,1.066,0.434c0.531,0.203,1.008,0.412,1.43,0.627
		s0.781,0.457,1.078,0.727s0.525,0.58,0.686,0.932s0.24,0.77,0.24,1.254c0,0.594-0.131,1.109-0.393,1.547s-0.611,0.801-1.049,1.09
		s-0.941,0.504-1.512,0.645s-1.168,0.211-1.793,0.211C77.434,24.984,76.363,24.746,75.457,24.27z"/>
	<path fill="#FFFFFF" d="M91.934,24.586c-0.453,0.25-1.051,0.375-1.793,0.375c-2.102,0-3.152-1.172-3.152-3.516v-7.102h-2.063
		v-1.641h2.063v-2.93l1.922-0.621v3.551h3.023v1.641H88.91v6.762c0,0.805,0.137,1.379,0.41,1.723s0.727,0.516,1.359,0.516
		c0.484,0,0.902-0.133,1.254-0.398V24.586z"/>
</g>
<g>
</g>
<g>
</g>
<g>
</g>
<g>
</g>
<g>
</g>
<g>
</g>
<g>
</g>
<g>
</g>
<g>
</g>
<g>
</g>
<g>
</g>
<g>
</g>
<g>
</g>
<g>
</g>
<g>
</g>
</svg>
